<svg xmlns="http://www.w3.org/2000/svg" width="18.365" height="15.132" viewBox="0 0 18.365 15.132">
  <path id="twitter" d="M725.511,5140.524l1.847-.369a15.657,15.657,0,0,1-1.847,1.845s-.006,0-.009,0a5.888,5.888,0,0,0,.009,1.109c-3.529,15.21-16.518,8.486-16.518,8.486,4.726.125,5.147-1.845,5.147-1.845-2.768-.42-3.3-2.214-3.3-2.214a1.152,1.152,0,0,0,1.467-.369,3.335,3.335,0,0,1-2.568-3.689,3.494,3.494,0,0,0,1.8.7c-.338-.394-3.126-3.756-1.434-5.5a9.137,9.137,0,0,0,7.428,4.036l.36-.091a3.907,3.907,0,0,1-.085-.809,3.863,3.863,0,0,1,3.852-3.874c2.564,0,3.118,1.476,3.118,1.476l1.834-1.106S726.411,5140.16,725.511,5140.524Z" transform="translate(-708.993 -5137.941)" fill="#ebebeb"/>
</svg>
