<svg xmlns="http://www.w3.org/2000/svg" width="18.414" height="15.932" viewBox="0 0 18.414 15.932">
  <path id="vimeo" d="M768.211,5140.813c-.009.457.568.1,1.1.369s1.593.567.734,2.952c0,0-1.2,3.594-2.2,3.32,0,0-1.549.063-1.834-3.32s-.863-6.817-2.568-6.641-4.178,1.842-5.858,4.058c0,0,.464,1.158,1.089,1.107s.587-.961,1.1-.738,1.309.187,1.834,3.321a16.239,16.239,0,0,0,2.2,6.272,2.537,2.537,0,0,0,2.568,1.49c.765,0,3.22-1.778,5.5-4.811s4.044-6.688,4.044-7.379.646-3.24-1.843-3.689S768.244,5139.188,768.211,5140.813Z" transform="translate(-757.585 -5137.07)" fill="#ebebeb"/>
</svg>
